<svg width="45" height="47" viewBox="0 0 45 47" fill="none" xmlns="http://www.w3.org/2000/svg">
<path d="M44 7.42857H14.4375M9.0625 7.42857H1M44 39.5714H14.4375M9.0625 39.5714H1M30.5625 23.5H1M44 23.5H35.9375M11.75 1C12.4628 1 13.1463 1.33865 13.6503 1.94144C14.1544 2.54424 14.4375 3.3618 14.4375 4.21429V10.6429C14.4375 11.4953 14.1544 12.3129 13.6503 12.9157C13.1463 13.5185 12.4628 13.8571 11.75 13.8571C11.0372 13.8571 10.3537 13.5185 9.84965 12.9157C9.34565 12.3129 9.0625 11.4953 9.0625 10.6429V4.21429C9.0625 3.3618 9.34565 2.54424 9.84965 1.94144C10.3537 1.33865 11.0372 1 11.75 1V1ZM11.75 33.1429C12.4628 33.1429 13.1463 33.4815 13.6503 34.0843C14.1544 34.6871 14.4375 35.5047 14.4375 36.3571V42.7857C14.4375 43.6382 14.1544 44.4558 13.6503 45.0586C13.1463 45.6614 12.4628 46 11.75 46C11.0372 46 10.3537 45.6614 9.84965 45.0586C9.34565 44.4558 9.0625 43.6382 9.0625 42.7857V36.3571C9.0625 35.5047 9.34565 34.6871 9.84965 34.0843C10.3537 33.4815 11.0372 33.1429 11.75 33.1429ZM33.25 17.0714C33.9628 17.0714 34.6463 17.4101 35.1503 18.0129C35.6544 18.6157 35.9375 19.4332 35.9375 20.2857V26.7143C35.9375 27.5668 35.6544 28.3843 35.1503 28.9871C34.6463 29.5899 33.9628 29.9286 33.25 29.9286C32.5372 29.9286 31.8537 29.5899 31.3497 28.9871C30.8456 28.3843 30.5625 27.5668 30.5625 26.7143V20.2857C30.5625 19.4332 30.8456 18.6157 31.3497 18.0129C31.8537 17.4101 32.5372 17.0714 33.25 17.0714V17.0714Z" stroke="#013459" stroke-linecap="round" stroke-linejoin="round"/>
</svg>
