<svg width="278" height="36" viewBox="0 0 278 36" fill="none" xmlns="http://www.w3.org/2000/svg">
<path d="M28.0859 9.45312C28.0859 10.5156 27.9375 11.4453 27.6406 12.2422C27.3594 13.0234 26.9531 13.6953 26.4219 14.2578C25.8906 14.8359 25.25 15.3281 24.5 15.7344C23.7656 16.1406 22.9453 16.4844 22.0391 16.7656V17C24.3203 17.5781 26.125 18.5625 27.4531 19.9531C28.1094 20.6719 28.6172 21.5 28.9766 22.4375C29.3516 23.375 29.5391 24.4297 29.5391 25.6016C29.5391 31.8672 24.9609 35 15.8047 35H0.335938V32.4453H2.30469C3.13281 32.4453 3.75781 32.2344 4.17969 31.8125C4.60156 31.3906 4.8125 30.5625 4.8125 29.3281V6.33594C4.8125 5.19531 4.59375 4.39844 4.15625 3.94531C3.71875 3.49219 3.10156 3.26562 2.30469 3.26562H0.335938V0.734375H14.3516C18.9141 0.734375 22.3438 1.4375 24.6406 2.84375C26.9375 4.25 28.0859 6.45312 28.0859 9.45312ZM14.1172 3.66406H12.3828V15.6172H14.2109C16.3984 15.6172 17.9297 15.1328 18.8047 14.1641C19.2578 13.6641 19.5703 13.0312 19.7422 12.2656C19.9297 11.4844 20.0234 10.5469 20.0234 9.45312C20.0234 7.28125 19.5781 5.77344 18.6875 4.92969C17.7969 4.08594 16.2734 3.66406 14.1172 3.66406ZM15.6641 18.5469H12.3828V32.0703H15.5703C17.7109 32.0703 19.2266 31.5703 20.1172 30.5703C21.0078 29.5859 21.4531 27.875 21.4531 25.4375C21.4531 24.2656 21.3594 23.25 21.1719 22.3906C20.9844 21.5156 20.6641 20.7969 20.2109 20.2344C19.7578 19.6719 19.1641 19.25 18.4297 18.9688C17.6953 18.6875 16.7734 18.5469 15.6641 18.5469ZM66.3828 17.8203C66.3828 20.4609 66.0312 22.8672 65.3281 25.0391C64.625 27.2109 63.5781 29.0703 62.1875 30.6172C60.8125 32.1641 59.1172 33.3594 57.1016 34.2031C55.0859 35.0469 52.7734 35.4688 50.1641 35.4688C47.4297 35.4688 45.0391 35.0469 42.9922 34.2031C40.9609 33.3594 39.2734 32.1641 37.9297 30.6172C36.5859 29.0703 35.5781 27.2109 34.9062 25.0391C34.2344 22.8516 33.8984 20.4297 33.8984 17.7734C33.8984 15.1172 34.2344 12.7109 34.9062 10.5547C35.5781 8.38281 36.5938 6.53125 37.9531 5C39.2969 3.46875 40.9844 2.28906 43.0156 1.46094C45.0625 0.617188 47.4609 0.195312 50.2109 0.195312C52.8047 0.195312 55.1016 0.617188 57.1016 1.46094C59.1172 2.28906 60.8125 3.46875 62.1875 5C64.9844 8.15625 66.3828 12.4297 66.3828 17.8203ZM41.9609 17.8203C41.9609 20.1172 42.1094 22.1641 42.4062 23.9609C42.7031 25.7422 43.1797 27.2578 43.8359 28.5078C44.4922 29.7422 45.3359 30.6953 46.3672 31.3672C47.4141 32.0234 48.6797 32.3516 50.1641 32.3516C51.6641 32.3516 52.9297 32.0234 53.9609 31.3672C55.0078 30.6953 55.8516 29.7422 56.4922 28.5078C57.1328 27.2578 57.5938 25.7422 57.875 23.9609C58.1719 22.1641 58.3203 20.1172 58.3203 17.8203C58.3203 15.5234 58.1719 13.4766 57.875 11.6797C57.5938 9.86719 57.1328 8.34375 56.4922 7.10938C55.8516 5.85938 55.0156 4.91406 53.9844 4.27344C52.9531 3.63281 51.6953 3.3125 50.2109 3.3125C47.3047 3.3125 45.1797 4.57812 43.8359 7.10938C43.1797 8.34375 42.7031 9.86719 42.4062 11.6797C42.1094 13.4766 41.9609 15.5234 41.9609 17.8203ZM101.586 6.38281V35H97.1562L78.4297 8.5625V29.3281C78.4297 30.5469 78.6406 31.375 79.0625 31.8125C79.4844 32.2344 80.0938 32.4453 80.8906 32.4453H82.9062V35H70.3672V32.4453H72.3828C73.2109 32.4453 73.8281 32.2344 74.2344 31.8125C74.6406 31.375 74.8438 30.5469 74.8438 29.3281V6.19531C74.8438 5.05469 74.625 4.28125 74.1875 3.875C73.7656 3.46875 73.1641 3.26562 72.3828 3.26562H70.3672V0.734375H81.0312L97.9766 24.6875V6.19531C97.9766 5.05469 97.7578 4.28125 97.3203 3.875C96.8984 3.46875 96.2969 3.26562 95.5156 3.26562H93.5V0.734375H106.039V3.26562H104.023C103.211 3.26562 102.602 3.48438 102.195 3.92188C101.789 4.34375 101.586 5.16406 101.586 6.38281ZM136.039 10.9062C136.039 12.3438 135.789 13.7266 135.289 15.0547C134.789 16.3828 133.977 17.5547 132.852 18.5703C131.727 19.5859 130.266 20.3984 128.469 21.0078C126.672 21.6016 124.477 21.8984 121.883 21.8984H120.242V29.5859C120.242 30.7266 120.461 31.4922 120.898 31.8828C121.352 32.2578 121.984 32.4453 122.797 32.4453H125.727V35H108.195V32.4453H110.211C111.039 32.4453 111.656 32.2344 112.062 31.8125C112.469 31.375 112.672 30.5469 112.672 29.3281V6.19531C112.672 5.05469 112.461 4.28125 112.039 3.875C111.633 3.46875 111.023 3.26562 110.211 3.26562H108.195V0.734375H122.938C125.156 0.734375 127.086 0.96875 128.727 1.4375C130.367 1.90625 131.734 2.57813 132.828 3.45312C134.969 5.21875 136.039 7.70312 136.039 10.9062ZM122.117 3.57031H120.242V19.1094H121.414C123.773 19.1094 125.461 18.4922 126.477 17.2578C127.477 16.0078 127.977 13.9531 127.977 11.0938C127.977 8.48438 127.539 6.58594 126.664 5.39844C125.727 4.17969 124.211 3.57031 122.117 3.57031ZM167.328 24.2891L166.977 35H138.852V32.4453H140.867C141.695 32.4453 142.312 32.2344 142.719 31.8125C143.125 31.375 143.328 30.5469 143.328 29.3281V6.38281C143.328 5.16406 143.125 4.34375 142.719 3.92188C142.312 3.48438 141.695 3.26562 140.867 3.26562H138.852V0.734375H155.422V3.26562H153.406C152.625 3.26562 152.016 3.46875 151.578 3.875C151.156 4.26562 150.945 5.03906 150.945 6.19531V32.0703H159.875C161 32.0703 161.875 31.7188 162.5 31.0156C163.125 30.2969 163.578 29.2578 163.859 27.8984L164.633 24.2891H167.328ZM192.734 28.5312L191.047 23.7266H179.375L177.992 27.8516C177.867 28.2422 177.734 28.7031 177.594 29.2344C177.469 29.75 177.406 30.2031 177.406 30.5938C177.406 31.1875 177.625 31.6484 178.062 31.9766C178.5 32.2891 179.008 32.4453 179.586 32.4453H181.602V35H169.109V32.4453H169.695C170.664 32.4453 171.422 32.1875 171.969 31.6719C172.516 31.1562 173.039 30.25 173.539 28.9531L183.945 0.734375H190.531L200.562 29C200.984 30.2031 201.477 31.0781 202.039 31.625C202.602 32.1719 203.32 32.4453 204.195 32.4453H205.062V35H189.219V32.4453H191.094C191.625 32.4453 192.102 32.2969 192.523 32C192.945 31.6875 193.156 31.2188 193.156 30.5938C193.156 30.2031 193.109 29.8281 193.016 29.4688C192.922 29.1094 192.828 28.7969 192.734 28.5312ZM180.383 20.7969H190.086L187.555 12.9219C187.367 12.3125 187.141 11.5703 186.875 10.6953C186.609 9.80469 186.352 8.91406 186.102 8.02344C185.867 7.11719 185.68 6.35156 185.539 5.72656C185.383 6.28906 185.156 7 184.859 7.85938C184.578 8.71875 184.281 9.58594 183.969 10.4609C183.672 11.3359 183.422 12.0781 183.219 12.6875L180.383 20.7969ZM237.617 6.38281V35H233.188L214.461 8.5625V29.3281C214.461 30.5469 214.672 31.375 215.094 31.8125C215.516 32.2344 216.125 32.4453 216.922 32.4453H218.938V35H206.398V32.4453H208.414C209.242 32.4453 209.859 32.2344 210.266 31.8125C210.672 31.375 210.875 30.5469 210.875 29.3281V6.19531C210.875 5.05469 210.656 4.28125 210.219 3.875C209.797 3.46875 209.195 3.26562 208.414 3.26562H206.398V0.734375H217.062L234.008 24.6875V6.19531C234.008 5.05469 233.789 4.28125 233.352 3.875C232.93 3.46875 232.328 3.26562 231.547 3.26562H229.531V0.734375H242.07V3.26562H240.055C239.242 3.26562 238.633 3.48438 238.227 3.92188C237.82 4.34375 237.617 5.16406 237.617 6.38281ZM277.062 17.2344C277.062 19.8594 276.703 22.2656 275.984 24.4531C275.281 26.625 274.211 28.4922 272.773 30.0547C271.352 31.6172 269.578 32.8359 267.453 33.7109C265.328 34.5703 262.867 35 260.07 35H244.227V32.4453H246.242C247.07 32.4453 247.688 32.2344 248.094 31.8125C248.5 31.375 248.703 30.5469 248.703 29.3281V6.19531C248.703 5.05469 248.492 4.28125 248.07 3.875C247.664 3.46875 247.055 3.26562 246.242 3.26562H244.227V0.734375H260.07C265.477 0.734375 269.641 2.11719 272.562 4.88281C274.016 6.25781 275.125 7.98438 275.891 10.0625C276.672 12.125 277.062 14.5156 277.062 17.2344ZM268.953 17.2344C268.953 12.6562 268.109 9.25 266.422 7.01562C264.75 4.78125 262.281 3.66406 259.016 3.66406H256.273V32.0234H258.969C260.609 32.0234 262.055 31.6875 263.305 31.0156C264.555 30.3281 265.602 29.3438 266.445 28.0625C268.117 25.5 268.953 21.8906 268.953 17.2344Z" fill="#013459"/>
</svg>
